<svg xmlns="http://www.w3.org/2000/svg" xmlns:xlink="http://www.w3.org/1999/xlink" width="500" zoomAndPan="magnify" viewBox="0 0 375 162.749997" height="217" preserveAspectRatio="xMidYMid meet" version="1.0"><defs><clipPath id="0d143d0fc5"><path d="M 2.351562 1.347656 L 373 1.347656 L 373 161 L 2.351562 161 Z M 2.351562 1.347656 " clip-rule="nonzero"/></clipPath><clipPath id="8d342e2bd5"><path d="M 1.601562 75.484375 L 1.601562 87.015625 C 1.601562 128.375 35.128906 161.898438 76.488281 161.898438 L 298.589844 161.898438 C 339.949219 161.898438 373.476562 128.375 373.476562 87.015625 L 373.476562 75.484375 C 373.476562 34.128906 339.949219 0.601562 298.589844 0.601562 L 76.488281 0.601562 C 35.128906 0.601562 1.601562 34.128906 1.601562 75.484375 Z M 1.601562 75.484375 " clip-rule="nonzero"/></clipPath><clipPath id="57b0cda9f0"><path d="M 77.386719 1.5 L 297.691406 1.5 C 339.050781 1.5 372.578125 35.027344 372.578125 76.382812 L 372.578125 86.117188 C 372.578125 127.472656 339.050781 161 297.691406 161 L 77.386719 161 C 36.027344 161 2.5 127.472656 2.5 86.117188 L 2.5 76.382812 C 2.5 35.027344 36.027344 1.5 77.386719 1.5 Z M 77.386719 1.5 " clip-rule="nonzero"/></clipPath><clipPath id="f73d7337e2"><path d="M 106.382812 23.894531 L 373 23.894531 L 373 161 L 106.382812 161 Z M 106.382812 23.894531 " clip-rule="nonzero"/></clipPath><clipPath id="d594845d3a"><path d="M 1.601562 75.484375 L 1.601562 87.015625 C 1.601562 128.375 35.128906 161.898438 76.488281 161.898438 L 298.589844 161.898438 C 339.949219 161.898438 373.476562 128.375 373.476562 87.015625 L 373.476562 75.484375 C 373.476562 34.128906 339.949219 0.601562 298.589844 0.601562 L 76.488281 0.601562 C 35.128906 0.601562 1.601562 34.128906 1.601562 75.484375 Z M 1.601562 75.484375 " clip-rule="nonzero"/></clipPath><clipPath id="c5d0b637ea"><path d="M 77.386719 1.5 L 297.691406 1.5 C 339.050781 1.5 372.578125 35.027344 372.578125 76.382812 L 372.578125 86.117188 C 372.578125 127.472656 339.050781 161 297.691406 161 L 77.386719 161 C 36.027344 161 2.5 127.472656 2.5 86.117188 L 2.5 76.382812 C 2.5 35.027344 36.027344 1.5 77.386719 1.5 Z M 77.386719 1.5 " clip-rule="nonzero"/></clipPath><clipPath id="31c147a97c"><path d="M 293.152344 161.507812 L 82.222656 161.507812 C 37.695312 161.507812 1.601562 125.507812 1.601562 81.101562 C 1.601562 36.695312 37.695312 0.695312 82.222656 0.695312 L 293.152344 0.695312 C 337.679688 0.695312 373.773438 36.695312 373.773438 81.101562 C 373.773438 125.507812 337.679688 161.507812 293.152344 161.507812 Z M 293.152344 161.507812 " clip-rule="nonzero"/></clipPath><clipPath id="f90c05d612"><path d="M 172.777344 76.371094 L 373 76.371094 L 373 161 L 172.777344 161 Z M 172.777344 76.371094 " clip-rule="nonzero"/></clipPath><clipPath id="025671896b"><path d="M 1.601562 75.484375 L 1.601562 87.015625 C 1.601562 128.375 35.128906 161.898438 76.488281 161.898438 L 298.589844 161.898438 C 339.949219 161.898438 373.476562 128.375 373.476562 87.015625 L 373.476562 75.484375 C 373.476562 34.128906 339.949219 0.601562 298.589844 0.601562 L 76.488281 0.601562 C 35.128906 0.601562 1.601562 34.128906 1.601562 75.484375 Z M 1.601562 75.484375 " clip-rule="nonzero"/></clipPath><clipPath id="ea96f4b8f1"><path d="M 77.386719 1.5 L 297.691406 1.5 C 339.050781 1.5 372.578125 35.027344 372.578125 76.382812 L 372.578125 86.117188 C 372.578125 127.472656 339.050781 161 297.691406 161 L 77.386719 161 C 36.027344 161 2.5 127.472656 2.5 86.117188 L 2.5 76.382812 C 2.5 35.027344 36.027344 1.5 77.386719 1.5 Z M 77.386719 1.5 " clip-rule="nonzero"/></clipPath><clipPath id="d00bedefbb"><path d="M 293.152344 161.507812 L 82.222656 161.507812 C 37.695312 161.507812 1.601562 125.507812 1.601562 81.101562 C 1.601562 36.695312 37.695312 0.695312 82.222656 0.695312 L 293.152344 0.695312 C 337.679688 0.695312 373.773438 36.695312 373.773438 81.101562 C 373.773438 125.507812 337.679688 161.507812 293.152344 161.507812 Z M 293.152344 161.507812 " clip-rule="nonzero"/></clipPath><clipPath id="d24b81c050"><path d="M 15.152344 13.757812 L 149.96875 13.757812 L 149.96875 148.441406 L 15.152344 148.441406 Z M 15.152344 13.757812 " clip-rule="nonzero"/></clipPath><clipPath id="49ccaab360"><path d="M 1.601562 75.484375 L 1.601562 87.015625 C 1.601562 128.375 35.128906 161.898438 76.488281 161.898438 L 298.589844 161.898438 C 339.949219 161.898438 373.476562 128.375 373.476562 87.015625 L 373.476562 75.484375 C 373.476562 34.128906 339.949219 0.601562 298.589844 0.601562 L 76.488281 0.601562 C 35.128906 0.601562 1.601562 34.128906 1.601562 75.484375 Z M 1.601562 75.484375 " clip-rule="nonzero"/></clipPath><clipPath id="99449b27ef"><path d="M 77.386719 1.5 L 297.691406 1.5 C 339.050781 1.5 372.578125 35.027344 372.578125 76.382812 L 372.578125 86.117188 C 372.578125 127.472656 339.050781 161 297.691406 161 L 77.386719 161 C 36.027344 161 2.5 127.472656 2.5 86.117188 L 2.5 76.382812 C 2.5 35.027344 36.027344 1.5 77.386719 1.5 Z M 77.386719 1.5 " clip-rule="nonzero"/></clipPath><clipPath id="6d28b2febc"><path d="M 293.152344 161.507812 L 82.222656 161.507812 C 37.695312 161.507812 1.601562 125.507812 1.601562 81.101562 C 1.601562 36.695312 37.695312 0.695312 82.222656 0.695312 L 293.152344 0.695312 C 337.679688 0.695312 373.773438 36.695312 373.773438 81.101562 C 373.773438 125.507812 337.679688 161.507812 293.152344 161.507812 Z M 293.152344 161.507812 " clip-rule="nonzero"/></clipPath><clipPath id="13544ed088"><path d="M 1.601562 0.601562 L 373.769531 0.601562 L 373.769531 161.601562 L 1.601562 161.601562 Z M 1.601562 0.601562 " clip-rule="nonzero"/></clipPath><clipPath id="f6d9b3115c"><path d="M 1.601562 75.484375 L 1.601562 87.015625 C 1.601562 128.375 35.128906 161.898438 76.488281 161.898438 L 298.589844 161.898438 C 339.949219 161.898438 373.476562 128.375 373.476562 87.015625 L 373.476562 75.484375 C 373.476562 34.128906 339.949219 0.601562 298.589844 0.601562 L 76.488281 0.601562 C 35.128906 0.601562 1.601562 34.128906 1.601562 75.484375 Z M 1.601562 75.484375 " clip-rule="nonzero"/></clipPath><clipPath id="e511ecbb2f"><path d="M 1.601562 75.484375 L 1.601562 87.011719 C 1.601562 128.371094 35.128906 161.894531 76.484375 161.894531 L 298.582031 161.894531 C 339.9375 161.894531 373.464844 128.371094 373.464844 87.011719 L 373.464844 75.484375 C 373.464844 34.125 339.9375 0.601562 298.582031 0.601562 L 76.484375 0.601562 C 35.128906 0.601562 1.601562 34.125 1.601562 75.484375 Z M 1.601562 75.484375 " clip-rule="nonzero"/></clipPath></defs><g clip-path="url(#0d143d0fc5)"><g clip-path="url(#8d342e2bd5)"><g clip-path="url(#57b0cda9f0)"><path fill="#88d8e7" d="M 293.152344 161.507812 L 82.222656 161.507812 C 37.695312 161.507812 1.601562 125.507812 1.601562 81.101562 C 1.601562 36.695312 37.695312 0.695312 82.222656 0.695312 L 293.152344 0.695312 C 337.679688 0.695312 373.773438 36.695312 373.773438 81.101562 C 373.773438 125.507812 337.679688 161.507812 293.152344 161.507812 " fill-opacity="1" fill-rule="nonzero"/></g></g></g><g clip-path="url(#f73d7337e2)"><g clip-path="url(#d594845d3a)"><g clip-path="url(#c5d0b637ea)"><g clip-path="url(#31c147a97c)"><path fill="#b0e5ed" d="M 119.984375 130.816406 C 132.140625 121.886719 148.542969 120.800781 163.398438 123.476562 C 178.253906 126.148438 192.273438 132.144531 206.796875 136.253906 C 203.695312 130.796875 206.066406 123.363281 211.042969 119.523438 C 216.019531 115.6875 222.871094 114.992188 229.039062 116.230469 C 235.203125 117.46875 240.867188 120.425781 246.433594 123.347656 C 245.675781 113.09375 252.261719 103.1875 261.226562 98.109375 C 270.191406 93.035156 281.085938 92.242188 291.261719 93.886719 C 298.175781 95.003906 304.046875 96.90625 310.644531 99.398438 C 311.53125 99.734375 312.1875 98.535156 311.414062 97.980469 C 303.410156 92.234375 298.878906 85.054688 297.476562 75.660156 C 295.601562 63.121094 300.484375 50.039062 309.222656 40.832031 C 317.964844 31.625 330.230469 26.148438 342.824219 24.421875 C 354.839844 22.773438 368.4375 25.015625 376.246094 34.273438 C 382.742188 41.972656 383.859375 52.707031 384.703125 62.734375 C 386.238281 81.023438 387.714844 99.871094 382.144531 117.363281 C 372.800781 146.703125 344.75 167.042969 315.082031 175.535156 C 285.414062 184.027344 253.925781 182.609375 223.097656 181.121094 C 197.679688 179.894531 172.261719 178.664062 146.847656 177.4375 C 131.539062 176.699219 107.46875 180.429688 106.515625 159.394531 C 106.015625 148.390625 111.046875 137.382812 119.984375 130.816406 " fill-opacity="1" fill-rule="nonzero"/></g></g></g></g><g clip-path="url(#f90c05d612)"><g clip-path="url(#025671896b)"><g clip-path="url(#ea96f4b8f1)"><g clip-path="url(#d00bedefbb)"><path fill="#dbf3f6" d="M 172.988281 149.789062 C 172.878906 141.121094 178.5 132.871094 186.253906 128.957031 C 194.011719 125.042969 203.515625 125.25 211.511719 128.644531 C 219.511719 132.035156 226.042969 138.386719 230.535156 145.808594 C 227.722656 134.023438 234.90625 121.355469 245.480469 115.398438 C 256.058594 109.4375 269.152344 109.324219 280.890625 112.4375 C 292.628906 115.554688 303.332031 121.617188 313.882812 127.617188 C 305.265625 118.746094 299.757812 105.320312 304.503906 93.910156 C 308.4375 84.445312 318.558594 78.6875 328.714844 77.125 C 338.871094 75.5625 349.203125 77.488281 359.296875 79.40625 C 369.351562 81.316406 380.605469 84.039062 385.804688 92.828125 C 389.0625 98.34375 389.136719 105.328125 387.167969 111.421875 C 385.199219 117.515625 381.375 122.847656 377.171875 127.6875 C 354.886719 153.363281 321.261719 167.082031 287.546875 171.84375 C 269.339844 174.417969 250.886719 174.628906 232.542969 173.757812 C 223.179688 173.316406 213.832031 172.589844 204.496094 171.753906 C 198.25 171.195312 190.605469 171.691406 185.027344 168.441406 C 178.339844 164.546875 173.089844 157.71875 172.988281 149.789062 " fill-opacity="1" fill-rule="nonzero"/></g></g></g></g><g clip-path="url(#d24b81c050)"><g clip-path="url(#49ccaab360)"><g clip-path="url(#99449b27ef)"><g clip-path="url(#6d28b2febc)"><path fill="#f2f258" d="M 149.953125 81.101562 C 149.953125 118.199219 119.800781 148.273438 82.601562 148.273438 C 45.40625 148.273438 15.253906 118.199219 15.253906 81.101562 C 15.253906 44.003906 45.40625 13.929688 82.601562 13.929688 C 119.800781 13.929688 149.953125 44.003906 149.953125 81.101562 " fill-opacity="1" fill-rule="nonzero"/></g></g></g></g><g clip-path="url(#13544ed088)"><g clip-path="url(#f6d9b3115c)"><g clip-path="url(#e511ecbb2f)"><path stroke-linecap="butt" transform="matrix(0.74885, 0, 0, 0.74885, 1.601457, 0.600074)" fill="none" stroke-linejoin="miter" d="M 0.00014082 99.999107 L 0.00014082 115.392508 C 0.00014082 170.62305 44.77193 215.389627 99.997251 215.389627 L 396.582314 215.389627 C 451.807635 215.389627 496.579424 170.62305 496.579424 115.392508 L 496.579424 99.999107 C 496.579424 44.768564 451.807635 0.00198733 396.582314 0.00198733 L 99.997251 0.00198733 C 44.77193 0.00198733 0.00014082 44.768564 0.00014082 99.999107 Z M 0.00014082 99.999107 " stroke="#000000" stroke-width="8" stroke-opacity="1" stroke-miterlimit="4"/></g></g></g></svg>