<svg xmlns="http://www.w3.org/2000/svg" xmlns:xlink="http://www.w3.org/1999/xlink" width="500" zoomAndPan="magnify" viewBox="0 0 375 162.749997" height="217" preserveAspectRatio="xMidYMid meet" version="1.0"><defs><clipPath id="6bc98f457a"><path d="M 2.351562 1.105469 L 373 1.105469 L 373 161 L 2.351562 161 Z M 2.351562 1.105469 " clip-rule="nonzero"/></clipPath><clipPath id="1456a8d062"><path d="M 1.601562 75.242188 L 1.601562 86.6875 C 1.601562 128.042969 35.128906 161.570312 76.488281 161.570312 L 298.390625 161.570312 C 339.746094 161.570312 373.273438 128.042969 373.273438 86.6875 L 373.273438 75.242188 C 373.273438 33.886719 339.746094 0.359375 298.390625 0.359375 L 76.488281 0.359375 C 35.128906 0.359375 1.601562 33.886719 1.601562 75.242188 Z M 1.601562 75.242188 " clip-rule="nonzero"/></clipPath><clipPath id="fc43d2f9ce"><path d="M 77.386719 1.257812 L 297.492188 1.257812 C 338.847656 1.257812 372.375 34.785156 372.375 76.140625 L 372.375 85.789062 C 372.375 127.144531 338.847656 160.671875 297.492188 160.671875 L 77.386719 160.671875 C 36.027344 160.671875 2.5 127.144531 2.5 85.789062 L 2.5 76.140625 C 2.5 34.785156 36.027344 1.257812 77.386719 1.257812 Z M 77.386719 1.257812 " clip-rule="nonzero"/></clipPath><clipPath id="9288338144"><path d="M 2.351562 23.652344 L 263.480469 23.652344 L 263.480469 161 L 2.351562 161 Z M 2.351562 23.652344 " clip-rule="nonzero"/></clipPath><clipPath id="abb4a8ec5f"><path d="M 1.601562 75.242188 L 1.601562 86.6875 C 1.601562 128.042969 35.128906 161.570312 76.488281 161.570312 L 298.390625 161.570312 C 339.746094 161.570312 373.273438 128.042969 373.273438 86.6875 L 373.273438 75.242188 C 373.273438 33.886719 339.746094 0.359375 298.390625 0.359375 L 76.488281 0.359375 C 35.128906 0.359375 1.601562 33.886719 1.601562 75.242188 Z M 1.601562 75.242188 " clip-rule="nonzero"/></clipPath><clipPath id="6c81bf4240"><path d="M 77.386719 1.257812 L 297.492188 1.257812 C 338.847656 1.257812 372.375 34.785156 372.375 76.140625 L 372.375 85.789062 C 372.375 127.144531 338.847656 160.671875 297.492188 160.671875 L 77.386719 160.671875 C 36.027344 160.671875 2.5 127.144531 2.5 85.789062 L 2.5 76.140625 C 2.5 34.785156 36.027344 1.257812 77.386719 1.257812 Z M 77.386719 1.257812 " clip-rule="nonzero"/></clipPath><clipPath id="9fe43adc39"><path d="M 292.566406 161.261719 L 82.058594 161.261719 C 37.621094 161.261719 1.601562 125.265625 1.601562 80.859375 C 1.601562 36.453125 37.621094 0.457031 82.058594 0.457031 L 292.566406 0.457031 C 337 0.457031 373.023438 36.453125 373.023438 80.859375 C 373.023438 125.265625 337 161.261719 292.566406 161.261719 Z M 292.566406 161.261719 " clip-rule="nonzero"/></clipPath><clipPath id="3ec7e213f4"><path d="M 2.351562 76.128906 L 196.996094 76.128906 L 196.996094 161 L 2.351562 161 Z M 2.351562 76.128906 " clip-rule="nonzero"/></clipPath><clipPath id="5eb3dc9096"><path d="M 1.601562 75.242188 L 1.601562 86.6875 C 1.601562 128.042969 35.128906 161.570312 76.488281 161.570312 L 298.390625 161.570312 C 339.746094 161.570312 373.273438 128.042969 373.273438 86.6875 L 373.273438 75.242188 C 373.273438 33.886719 339.746094 0.359375 298.390625 0.359375 L 76.488281 0.359375 C 35.128906 0.359375 1.601562 33.886719 1.601562 75.242188 Z M 1.601562 75.242188 " clip-rule="nonzero"/></clipPath><clipPath id="4034d04491"><path d="M 77.386719 1.257812 L 297.492188 1.257812 C 338.847656 1.257812 372.375 34.785156 372.375 76.140625 L 372.375 85.789062 C 372.375 127.144531 338.847656 160.671875 297.492188 160.671875 L 77.386719 160.671875 C 36.027344 160.671875 2.5 127.144531 2.5 85.789062 L 2.5 76.140625 C 2.5 34.785156 36.027344 1.257812 77.386719 1.257812 Z M 77.386719 1.257812 " clip-rule="nonzero"/></clipPath><clipPath id="b654f301eb"><path d="M 292.566406 161.261719 L 82.058594 161.261719 C 37.621094 161.261719 1.601562 125.265625 1.601562 80.859375 C 1.601562 36.453125 37.621094 0.457031 82.058594 0.457031 L 292.566406 0.457031 C 337 0.457031 373.023438 36.453125 373.023438 80.859375 C 373.023438 125.265625 337 161.261719 292.566406 161.261719 Z M 292.566406 161.261719 " clip-rule="nonzero"/></clipPath><clipPath id="494e7744fa"><path d="M 223.589844 13.519531 L 358.132812 13.519531 L 358.132812 148.199219 L 223.589844 148.199219 Z M 223.589844 13.519531 " clip-rule="nonzero"/></clipPath><clipPath id="3c79a5465b"><path d="M 1.601562 75.242188 L 1.601562 86.6875 C 1.601562 128.042969 35.128906 161.570312 76.488281 161.570312 L 298.390625 161.570312 C 339.746094 161.570312 373.273438 128.042969 373.273438 86.6875 L 373.273438 75.242188 C 373.273438 33.886719 339.746094 0.359375 298.390625 0.359375 L 76.488281 0.359375 C 35.128906 0.359375 1.601562 33.886719 1.601562 75.242188 Z M 1.601562 75.242188 " clip-rule="nonzero"/></clipPath><clipPath id="aeaa2836b8"><path d="M 77.386719 1.257812 L 297.492188 1.257812 C 338.847656 1.257812 372.375 34.785156 372.375 76.140625 L 372.375 85.789062 C 372.375 127.144531 338.847656 160.671875 297.492188 160.671875 L 77.386719 160.671875 C 36.027344 160.671875 2.5 127.144531 2.5 85.789062 L 2.5 76.140625 C 2.5 34.785156 36.027344 1.257812 77.386719 1.257812 Z M 77.386719 1.257812 " clip-rule="nonzero"/></clipPath><clipPath id="b84a8587e8"><path d="M 292.566406 161.261719 L 82.058594 161.261719 C 37.621094 161.261719 1.601562 125.265625 1.601562 80.859375 C 1.601562 36.453125 37.621094 0.457031 82.058594 0.457031 L 292.566406 0.457031 C 337 0.457031 373.023438 36.453125 373.023438 80.859375 C 373.023438 125.265625 337 161.261719 292.566406 161.261719 Z M 292.566406 161.261719 " clip-rule="nonzero"/></clipPath><clipPath id="4046354688"><path d="M 23 87 L 101 87 L 101 108 L 23 108 Z M 23 87 " clip-rule="nonzero"/></clipPath><clipPath id="df59878b36"><path d="M 1.601562 75.242188 L 1.601562 86.6875 C 1.601562 128.042969 35.128906 161.570312 76.488281 161.570312 L 298.390625 161.570312 C 339.746094 161.570312 373.273438 128.042969 373.273438 86.6875 L 373.273438 75.242188 C 373.273438 33.886719 339.746094 0.359375 298.390625 0.359375 L 76.488281 0.359375 C 35.128906 0.359375 1.601562 33.886719 1.601562 75.242188 Z M 1.601562 75.242188 " clip-rule="nonzero"/></clipPath><clipPath id="b683e69f9a"><path d="M 77.386719 1.257812 L 297.492188 1.257812 C 338.847656 1.257812 372.375 34.785156 372.375 76.140625 L 372.375 85.789062 C 372.375 127.144531 338.847656 160.671875 297.492188 160.671875 L 77.386719 160.671875 C 36.027344 160.671875 2.5 127.144531 2.5 85.789062 L 2.5 76.140625 C 2.5 34.785156 36.027344 1.257812 77.386719 1.257812 Z M 77.386719 1.257812 " clip-rule="nonzero"/></clipPath><clipPath id="6fd13c5fdb"><path d="M 56 22 L 168 22 L 168 39 L 56 39 Z M 56 22 " clip-rule="nonzero"/></clipPath><clipPath id="48ca37d89b"><path d="M 1.601562 75.242188 L 1.601562 86.6875 C 1.601562 128.042969 35.128906 161.570312 76.488281 161.570312 L 298.390625 161.570312 C 339.746094 161.570312 373.273438 128.042969 373.273438 86.6875 L 373.273438 75.242188 C 373.273438 33.886719 339.746094 0.359375 298.390625 0.359375 L 76.488281 0.359375 C 35.128906 0.359375 1.601562 33.886719 1.601562 75.242188 Z M 1.601562 75.242188 " clip-rule="nonzero"/></clipPath><clipPath id="cde62723bc"><path d="M 77.386719 1.257812 L 297.492188 1.257812 C 338.847656 1.257812 372.375 34.785156 372.375 76.140625 L 372.375 85.789062 C 372.375 127.144531 338.847656 160.671875 297.492188 160.671875 L 77.386719 160.671875 C 36.027344 160.671875 2.5 127.144531 2.5 85.789062 L 2.5 76.140625 C 2.5 34.785156 36.027344 1.257812 77.386719 1.257812 Z M 77.386719 1.257812 " clip-rule="nonzero"/></clipPath><clipPath id="bce2f24327"><path d="M 1.601562 0.359375 L 373.03125 0.359375 L 373.03125 161.359375 L 1.601562 161.359375 Z M 1.601562 0.359375 " clip-rule="nonzero"/></clipPath><clipPath id="6c696a697f"><path d="M 1.601562 75.242188 L 1.601562 86.6875 C 1.601562 128.042969 35.128906 161.570312 76.488281 161.570312 L 298.390625 161.570312 C 339.746094 161.570312 373.273438 128.042969 373.273438 86.6875 L 373.273438 75.242188 C 373.273438 33.886719 339.746094 0.359375 298.390625 0.359375 L 76.488281 0.359375 C 35.128906 0.359375 1.601562 33.886719 1.601562 75.242188 Z M 1.601562 75.242188 " clip-rule="nonzero"/></clipPath><clipPath id="a2c73a4a3a"><path d="M 1.601562 75.242188 L 1.601562 86.6875 C 1.601562 128.042969 35.128906 161.570312 76.484375 161.570312 L 298.382812 161.570312 C 339.738281 161.570312 373.265625 128.042969 373.265625 86.6875 L 373.265625 75.242188 C 373.265625 33.886719 339.738281 0.359375 298.382812 0.359375 L 76.484375 0.359375 C 35.128906 0.359375 1.601562 33.886719 1.601562 75.242188 Z M 1.601562 75.242188 " clip-rule="nonzero"/></clipPath></defs><g clip-path="url(#6bc98f457a)"><g clip-path="url(#1456a8d062)"><g clip-path="url(#fc43d2f9ce)"><path fill="#2c4f7c" d="M 292.566406 161.261719 L 82.058594 161.261719 C 37.621094 161.261719 1.601562 125.265625 1.601562 80.859375 C 1.601562 36.453125 37.621094 0.457031 82.058594 0.457031 L 292.566406 0.457031 C 337 0.457031 373.023438 36.453125 373.023438 80.859375 C 373.023438 125.265625 337 161.261719 292.566406 161.261719 " fill-opacity="1" fill-rule="nonzero"/></g></g></g><g clip-path="url(#9288338144)"><g clip-path="url(#abb4a8ec5f)"><g clip-path="url(#6c81bf4240)"><g clip-path="url(#9fe43adc39)"><path fill="#40679a" d="M 249.882812 130.574219 C 237.753906 121.644531 221.382812 120.558594 206.558594 123.234375 C 191.734375 125.90625 177.742188 131.902344 163.25 136.011719 C 166.34375 130.554688 163.976562 123.121094 159.011719 119.28125 C 154.042969 115.445312 147.207031 114.75 141.050781 115.988281 C 134.898438 117.226562 129.246094 120.183594 123.691406 123.105469 C 124.445312 112.851562 117.875 102.945312 108.929688 97.867188 C 99.980469 92.792969 89.105469 92.003906 78.949219 93.644531 C 72.050781 94.761719 66.191406 96.664062 59.609375 99.15625 C 58.722656 99.492188 58.066406 98.292969 58.839844 97.738281 C 66.828125 91.992188 71.351562 84.8125 72.75 75.421875 C 74.621094 62.878906 69.75 49.796875 61.027344 40.59375 C 52.304688 31.386719 40.0625 25.910156 27.492188 24.183594 C 15.5 22.535156 1.933594 24.773438 -5.859375 34.03125 C -12.34375 41.734375 -13.460938 52.464844 -14.300781 62.492188 C -15.832031 80.785156 -17.308594 99.628906 -11.746094 117.121094 C -2.425781 146.460938 25.574219 166.800781 55.179688 175.292969 C 84.789062 183.785156 116.210938 182.367188 146.976562 180.878906 C 172.34375 179.648438 197.710938 178.421875 223.078125 177.195312 C 238.351562 176.453125 262.375 180.183594 263.324219 159.148438 C 263.824219 148.148438 258.804688 137.140625 249.882812 130.574219 " fill-opacity="1" fill-rule="nonzero"/></g></g></g></g><g clip-path="url(#3ec7e213f4)"><g clip-path="url(#5eb3dc9096)"><g clip-path="url(#4034d04491)"><g clip-path="url(#b654f301eb)"><path fill="#5281b8" d="M 196.988281 149.546875 C 197.09375 140.878906 191.488281 132.628906 183.746094 128.714844 C 176.007812 124.800781 166.523438 125.007812 158.539062 128.402344 C 150.558594 131.792969 144.039062 138.144531 139.558594 145.566406 C 142.363281 133.78125 135.195312 121.113281 124.640625 115.15625 C 114.085938 109.199219 101.019531 109.082031 89.304688 112.195312 C 77.589844 115.3125 66.90625 121.375 56.375 127.371094 C 64.976562 118.503906 70.472656 105.078125 65.738281 93.667969 C 61.808594 84.203125 51.710938 78.445312 41.574219 76.882812 C 31.4375 75.320312 21.125 77.246094 11.050781 79.164062 C 1.019531 81.078125 -10.210938 83.796875 -15.398438 92.585938 C -18.652344 98.101562 -18.726562 105.085938 -16.761719 111.179688 C -14.792969 117.273438 -10.980469 122.605469 -6.785156 127.445312 C 15.457031 153.117188 49.011719 166.835938 82.65625 171.601562 C 100.828125 174.171875 119.25 174.382812 137.554688 173.515625 C 146.898438 173.074219 156.226562 172.347656 165.542969 171.511719 C 171.777344 170.953125 179.40625 171.449219 184.972656 168.199219 C 191.644531 164.304688 196.886719 157.476562 196.988281 149.546875 " fill-opacity="1" fill-rule="nonzero"/></g></g></g></g><g clip-path="url(#494e7744fa)"><g clip-path="url(#3c79a5465b)"><g clip-path="url(#aeaa2836b8)"><g clip-path="url(#b84a8587e8)"><path fill="#c0dcf4" d="M 358.128906 80.859375 C 358.128906 117.957031 328.035156 148.027344 290.914062 148.027344 C 253.792969 148.027344 223.699219 117.957031 223.699219 80.859375 C 223.699219 43.761719 253.792969 13.691406 290.914062 13.691406 C 328.035156 13.691406 358.128906 43.761719 358.128906 80.859375 " fill-opacity="1" fill-rule="nonzero"/></g></g></g></g><g clip-path="url(#4046354688)"><g clip-path="url(#df59878b36)"><g clip-path="url(#b683e69f9a)"><path fill="#c0dcf4" d="M 62.484375 87.894531 L 65.363281 94.535156 C 65.425781 94.679688 65.585938 94.785156 65.765625 94.796875 L 100.046875 97.296875 C 100.628906 97.339844 100.628906 98.066406 100.046875 98.105469 L 65.765625 100.609375 C 65.585938 100.621094 65.425781 100.722656 65.363281 100.871094 L 62.484375 107.507812 C 62.328125 107.863281 61.742188 107.863281 61.589844 107.507812 L 58.710938 100.871094 C 58.648438 100.722656 58.488281 100.621094 58.304688 100.609375 L 24.027344 98.105469 C 23.445312 98.066406 23.445312 97.339844 24.027344 97.296875 L 58.304688 94.796875 C 58.488281 94.785156 58.648438 94.679688 58.710938 94.535156 L 61.589844 87.894531 C 61.742188 87.542969 62.328125 87.542969 62.484375 87.894531 " fill-opacity="1" fill-rule="nonzero"/></g></g></g><g clip-path="url(#6fd13c5fdb)"><g clip-path="url(#48ca37d89b)"><g clip-path="url(#cde62723bc)"><path fill="#c0dcf4" d="M 112.765625 22.511719 L 116.902344 27.941406 C 116.996094 28.0625 117.222656 28.144531 117.484375 28.15625 L 166.753906 30.203125 C 167.589844 30.234375 167.589844 30.828125 166.753906 30.863281 L 117.484375 32.910156 C 117.222656 32.917969 116.996094 33.003906 116.902344 33.125 L 112.765625 38.554688 C 112.546875 38.84375 111.703125 38.84375 111.480469 38.554688 L 107.34375 33.125 C 107.253906 33.003906 107.027344 32.917969 106.761719 32.910156 L 57.496094 30.863281 C 56.660156 30.828125 56.660156 30.234375 57.496094 30.203125 L 106.761719 28.15625 C 107.027344 28.144531 107.253906 28.0625 107.34375 27.941406 L 111.480469 22.511719 C 111.703125 22.222656 112.546875 22.222656 112.765625 22.511719 " fill-opacity="1" fill-rule="nonzero"/></g></g></g><g clip-path="url(#bce2f24327)"><g clip-path="url(#6c696a697f)"><g clip-path="url(#a2c73a4a3a)"><path stroke-linecap="butt" transform="matrix(0.74885, 0, 0, 0.74885, 1.601457, 0.358534)" fill="none" stroke-linejoin="miter" d="M 0.00014082 99.998232 L 0.00014082 115.282089 C 0.00014082 170.50741 44.77193 215.279199 99.997251 215.279199 L 396.316281 215.279199 C 451.541602 215.279199 496.313391 170.50741 496.313391 115.282089 L 496.313391 99.998232 C 496.313391 44.772912 451.541602 0.0011226 396.316281 0.0011226 L 99.997251 0.0011226 C 44.77193 0.0011226 0.00014082 44.772912 0.00014082 99.998232 Z M 0.00014082 99.998232 " stroke="#ffffff" stroke-width="8" stroke-opacity="1" stroke-miterlimit="4"/></g></g></g></svg>